<svg width="267" height="266" viewBox="0 0 267 266" fill="none" xmlns="http://www.w3.org/2000/svg">
<g clip-path="url(#clip0_6_1091)">
<rect width="266" height="266" rx="133" transform="matrix(-1 0 0 1 266.296 0)" fill="black"/>
<mask id="mask0_6_1091" style="mask-type:alpha" maskUnits="userSpaceOnUse" x="1" y="0" width="266" height="266">
<circle cx="132.564" cy="132.564" r="132.564" transform="matrix(-1 0 0 1 266.296 0)" fill="#D9D9D9"/>
</mask>
<g mask="url(#mask0_6_1091)">
<path d="M61.0583 242.008C61.6668 242.443 62.3623 242.877 62.9708 243.312C63.6662 243.746 64.2747 244.181 64.9701 244.529C65.5786 244.876 66.1002 245.224 66.7087 245.572C66.7956 245.659 66.8825 245.659 66.9694 245.746C68.9688 246.963 71.0551 248.093 73.1413 249.136C73.7498 249.484 74.4453 249.831 75.0538 250.092C75.0538 250.092 75.1407 250.179 75.2276 250.179C75.923 250.527 76.6185 250.875 77.3139 251.222C78.7047 251.918 80.1825 252.526 81.5734 253.135C82.2688 253.482 83.0511 253.743 83.7466 254.004C84.442 254.265 85.2243 254.612 85.9198 254.873C86.6152 255.134 87.3975 255.482 88.093 255.743C88.093 255.743 88.093 255.743 88.1799 255.743C88.8753 256.003 89.6577 256.264 90.3531 256.525C91.9178 257.046 93.5694 257.568 95.1342 258.09C95.6557 258.263 96.2642 258.437 96.7858 258.611C98.4374 259.133 100.089 259.567 101.741 259.915C102.349 260.089 102.958 260.176 103.653 260.35C105.218 260.697 106.869 261.045 108.434 261.393C108.782 261.48 109.043 261.48 109.39 261.567C109.912 261.654 110.52 261.741 111.042 261.827C111.824 261.914 112.52 262.088 113.302 262.175C113.65 262.262 113.998 262.262 114.345 262.349C114.78 262.436 115.301 262.523 115.823 262.523C117.214 262.697 118.692 262.871 120.083 263.044C120.517 263.131 121.039 263.131 121.473 263.218H121.56C122.169 263.305 122.777 263.305 123.386 263.392C123.994 263.479 124.603 263.479 125.211 263.479C125.559 263.479 125.994 263.566 126.341 263.566C127.037 263.566 127.645 263.653 128.254 263.653C129.123 263.653 129.905 263.74 130.775 263.74C131.644 263.74 132.426 263.74 133.296 263.74C133.904 263.74 134.513 263.74 135.121 263.74C171.805 263.218 204.75 247.658 228.308 222.971C228.308 222.971 228.308 222.884 228.395 222.884C231.003 220.537 228.743 208.019 218.224 200.109C205.011 190.112 173.369 183.853 173.369 183.853C173.369 183.853 161.113 181.854 115.649 191.329C89.0492 196.892 68.7949 204.977 57.4943 226.882C55.1472 231.403 52.8002 238.357 61.0583 242.008Z" fill="white"/>
<path d="M115.388 190.373C98.6982 193.763 80.8779 197.414 67.1433 208.454C62.5361 212.192 59.4936 217.668 56.9727 222.971C55.7557 225.578 54.5387 228.273 53.5825 231.142C53.0609 233.054 52.2786 235.227 52.7132 237.488C52.8002 238.096 53.3217 238.878 53.7564 239.313C55.7557 241.312 57.9289 242.529 60.1021 244.094C72.8805 252.961 87.5714 259.22 102.784 262.523C136.686 269.912 173.369 264.175 203.186 246.354C213.096 240.356 222.223 233.054 230.047 224.448C230.916 223.405 230.916 221.667 230.916 220.537C230.829 217.929 230.133 215.408 229.264 213.061C227.178 207.671 224.483 202.282 219.876 198.544C216.573 196.284 213.009 194.371 209.358 192.807C197.883 187.939 185.8 184.548 173.369 183.158C172.326 183.071 172.152 184.548 173.196 184.722C185.105 187.156 196.927 190.807 207.967 195.762C211.966 197.761 216.225 199.5 219.441 202.629C222.484 205.933 224.657 210.018 226.396 214.191C227.526 216.712 228.308 220.711 227.96 222.71C222.484 229.229 216.051 234.967 209.097 239.922C171.022 266.522 113.215 268.26 72.7067 246.094C69.0557 244.094 65.4917 241.834 62.1015 239.487C60.4498 238.357 58.7113 237.401 57.4073 236.097C57.3204 236.01 57.4073 236.097 57.4073 236.184C57.4073 236.271 57.4943 236.358 57.4943 236.358C57.4073 235.314 57.7551 233.924 58.1897 232.533C59.7544 227.491 62.2753 222.188 64.9701 217.581C69.2296 210.714 76.4446 206.367 83.7466 202.89C88.7884 200.543 94.091 198.718 99.4805 196.979C104.87 195.241 110.347 193.763 115.823 192.459C117.214 192.111 116.779 190.112 115.388 190.373Z" fill="black"/>
<path d="M49.1497 254.351C50.8013 241.486 58.1033 219.841 62.5366 214.017C67.4046 207.671 69.4039 205.672 85.6595 200.195C86.5288 195.849 89.7451 184.896 93.57 180.289C99.3941 171.509 115.302 169.51 120.083 170.553C120.083 170.553 145.814 161.512 175.456 161.512C184.844 163.599 195.71 167.858 201.622 176.812C205.62 182.723 201.1 184.635 203.099 190.025C203.621 191.416 215.791 198.37 220.746 202.542C223.006 204.368 225.527 208.975 227.265 214.973C230.743 227.23 227.005 244.181 231.351 258.959C239.696 287.471 256.647 295.99 256.647 295.99H32.0249C32.1987 295.903 45.5856 281.473 49.1497 254.351Z" fill="white"/>
<path d="M50.4533 254.526C52.1918 243.138 55.669 231.837 60.1023 221.232C62.2755 216.103 65.5788 211.148 70.1859 208.106C72.533 206.628 75.1408 205.498 77.8356 204.368C80.5304 203.325 83.3121 202.369 86.0069 201.412C86.4415 201.239 86.7892 200.891 86.8761 200.456C87.2239 198.718 87.6585 197.066 88.1801 195.328C90.4402 188.286 92.8742 180.463 99.4807 176.377C104.523 173.335 110.521 171.857 116.345 171.596C117.475 171.596 118.692 171.596 119.735 171.77H120.083C120.17 171.77 120.343 171.77 120.43 171.683C124.603 169.684 129.21 168.467 133.73 167.25C147.291 164.12 161.46 162.816 175.369 162.729C183.888 164.729 195.797 169.423 201.013 178.116C201.882 179.507 202.317 180.897 202.143 182.462C201.969 184.201 201.36 186.113 201.795 187.939C201.969 188.721 202.143 189.59 202.491 190.286C203.186 191.242 204.316 191.85 205.185 192.459C209.706 195.414 214.313 198.022 218.659 201.065C220.137 202.108 221.528 203.064 222.571 204.542C225.613 208.888 227.439 214.104 228.221 219.32C229.612 229.925 228.221 240.704 229.612 251.309C231.177 261.914 235.262 272.172 241 281.212C244.998 287.297 249.866 292.948 256.038 296.86L256.647 294.426H32.0245L32.9807 296.599C35.5886 293.643 37.6748 290.427 39.5873 287.037C45.4984 277.127 48.9755 265.913 50.4533 254.526ZM47.8454 254.178C46.8892 261.567 45.0637 268.869 42.282 275.823C39.5003 282.69 36.0232 289.384 31.1552 295.034C30.4598 295.816 31.0683 297.294 32.1114 297.207H256.734C257.429 297.207 258.038 296.599 258.038 295.903C258.038 295.382 257.777 294.947 257.342 294.773C255.951 293.991 254.56 292.861 253.257 291.731C241.869 281.473 234.741 266.261 232.394 251.135C230.394 236.966 234.132 221.667 227.787 208.193C226.309 205.063 224.483 201.76 221.528 199.761C216.138 195.762 210.227 192.807 204.925 188.895C204.838 188.895 204.838 188.808 204.838 188.808C204.925 188.895 205.011 189.069 205.011 189.156C204.49 187.939 204.316 186.895 204.49 185.505C204.751 183.766 205.185 181.419 204.577 179.594C204.316 178.55 203.794 177.594 203.273 176.812C197.014 167.424 185.974 163.251 175.456 160.904C172.5 160.991 169.458 160.469 166.502 160.469C162.417 160.469 158.244 161.078 154.158 161.599C142.423 163.425 131.123 166.554 119.561 169.075L120.343 168.988C117.649 168.467 115.128 168.728 112.52 169.075C95.8297 171.596 90.1794 178.898 85.6591 194.458C85.1376 196.197 84.7029 197.935 84.2683 199.761L85.1376 198.718C76.7925 201.673 67.4043 204.368 62.1016 212.105C60.1892 214.452 58.7984 217.233 57.5814 220.015C53.148 231.142 49.6709 242.356 47.8454 254.178Z" fill="black"/>
<path d="M186.148 197.153C179.715 210.888 169.718 222.536 157.809 231.751C157.375 232.098 157.809 232.794 158.331 232.533C168.936 227.491 177.89 218.885 183.192 208.454C184.931 204.977 186.409 201.239 186.93 197.327C187.104 196.892 186.409 196.719 186.148 197.153Z" fill="black"/>
<path d="M84.355 200.022C84.0942 214.539 90.0053 229.403 101.306 238.792C101.567 239.052 101.914 238.966 102.175 238.705C102.436 238.444 102.349 238.096 102.088 237.835C99.5674 235.401 97.0465 232.881 95.1341 229.925C91.1354 224.188 88.7014 217.407 87.5713 210.54C87.0497 207.15 86.702 203.499 86.9628 200.109C87.0498 198.457 84.4419 198.283 84.355 200.022Z" fill="black"/>
<path d="M135.556 234.532C137.555 241.573 139.207 249.223 138.251 256.525C137.99 258.177 140.511 258.611 140.858 256.873C141.293 252.874 140.772 248.962 140.076 245.137C139.294 241.312 138.338 237.662 137.034 234.011C136.686 233.141 135.208 233.576 135.556 234.532Z" fill="black"/>
<path d="M107.913 233.228C105.044 239.4 103.045 245.833 101.48 252.352C101.306 253.048 101.741 253.743 102.436 253.917C103.132 254.091 103.827 253.656 104.001 252.961C104.87 248.093 106 243.225 107.565 238.444C108.087 236.879 108.608 235.314 109.217 233.75C109.564 232.967 108.347 232.359 107.913 233.228Z" fill="black"/>
<path d="M201.274 189.677C198.057 207.237 185.713 222.101 170.849 231.577C165.807 234.793 160.417 237.575 154.854 239.835C154.506 240.009 154.332 240.356 154.506 240.704C154.593 241.052 155.028 241.226 155.289 241.052C161.026 238.965 166.589 236.358 171.805 233.228C182.41 226.969 191.711 218.277 197.97 207.671C201.187 202.195 203.708 196.458 204.925 190.199C205.098 189.156 204.403 188.199 203.36 188.026C202.404 187.765 201.36 188.547 201.274 189.677Z" fill="black"/>
<path d="M140.772 258.437C143.206 258.177 144.944 255.916 144.423 253.482L143.467 248.875C143.119 247.05 141.38 245.746 139.555 246.007C137.729 246.181 136.252 247.745 136.252 249.658V254.352C136.165 256.786 138.251 258.698 140.772 258.437Z" fill="black"/>
<path d="M100.698 255.221C103.045 256.09 105.566 254.699 106.174 252.265L107.304 247.658C107.739 245.833 106.783 244.007 104.957 243.312C103.219 242.703 101.219 243.486 100.437 245.137L98.3507 249.397C97.3075 251.744 98.3507 254.439 100.698 255.221Z" fill="black"/>
<path d="M60.5369 252.613C60.5369 252.613 55.6689 279.909 57.5814 295.903" stroke="black" stroke-width="5.1257" stroke-miterlimit="10" stroke-linecap="round" stroke-linejoin="round"/>
<path d="M174.065 186.548C175.282 183.071 175.804 179.507 175.543 175.856C175.543 175.508 175.282 175.334 174.935 175.334C174.674 175.334 174.413 175.595 174.413 175.856C174.152 179.159 173.196 182.549 171.631 185.418C170.849 187.156 173.457 188.286 174.065 186.548Z" fill="black"/>
<path d="M115.302 191.155C117.736 185.679 123.734 182.897 129.037 180.984C132.34 179.941 135.991 179.159 139.468 178.637C147.9 177.333 159.809 175.334 168.241 174.465C168.328 174.465 168.328 174.291 168.241 174.291C165.807 174.03 163.373 174.03 160.939 174.03C153.637 174.204 146.335 174.986 139.12 176.117C131.905 177.247 124.169 179.42 118.692 184.635C116.954 186.461 115.389 188.547 114.954 191.068C114.867 191.329 115.215 191.416 115.302 191.155Z" fill="black"/>
<path d="M107.218 213.495C109.043 222.449 120.866 227.839 140.772 219.754C161.461 211.409 170.415 191.503 172.675 185.592C160.418 162.643 168.937 146.735 168.937 146.735C140.685 144.301 115.998 177.333 115.998 177.333L112.173 193.676C111.825 195.067 111.13 196.284 110.087 197.153C108.261 200.369 106.088 207.758 107.218 213.495Z" fill="white"/>
<path d="M173.109 185.852C171.457 183.331 170.414 180.376 169.719 177.507C168.415 171.509 167.98 165.424 167.893 159.339V157.079C168.154 154.819 168.936 152.472 169.806 150.386C170.936 147.604 166.85 145.865 165.546 148.647C165.372 148.995 165.372 149.603 165.372 149.951C165.112 161.773 164.59 176.986 172.066 186.809C172.587 187.33 173.631 186.548 173.109 185.852Z" fill="black"/>
<path d="M115.041 177.16C113.737 177.942 113.303 178.985 113.129 180.028C112.607 182.115 112.781 184.375 112.26 186.548C111.825 188.634 110.521 190.633 110.173 192.807C109.739 195.067 108.435 199.848 107.913 202.195C107.739 202.716 108.087 203.325 108.696 203.412C109.043 203.499 109.304 203.412 109.565 203.238C110.695 202.282 111.216 201.326 111.912 200.109C113.042 198.022 113.824 196.11 114.52 193.763C115.128 191.677 114.867 189.416 115.389 187.243C115.824 185.157 117.041 183.158 117.475 180.984C117.736 179.941 117.823 178.811 117.041 177.507C116.519 176.986 115.65 176.812 115.041 177.16Z" fill="black"/>
<path d="M108.782 200.109C125.385 199.239 138.946 194.024 152.159 170.466C141.033 180.289 127.906 184.027 114.085 185.765L112.259 193.763C111.912 195.154 109.825 199.239 108.782 200.109Z" fill="black"/>
<path d="M109.477 196.892C106.522 202.456 104.783 209.41 106.609 215.582C108 219.928 111.998 223.145 116.345 224.362C126.428 227.056 138.077 222.797 147.03 218.016C158.07 211.844 166.241 201.499 171.457 190.199C171.805 189.329 170.588 188.634 170.066 189.503C168.241 193.154 166.154 196.718 163.807 199.935C161.46 203.238 158.766 206.28 155.723 208.975C146.856 216.973 134.86 221.928 122.864 221.928C110.52 221.58 105.826 215.06 108.695 203.064C109.13 201.152 109.825 199.152 110.781 197.501C111.303 196.805 109.999 196.023 109.477 196.892Z" fill="black"/>
<path d="M75.8364 92.4915C74.2717 99.7935 73.4894 105.705 77.7489 125.177C81.9214 144.561 71.7508 148.56 95.8299 179.594C105.653 192.285 129.471 188.721 148.769 175.595C155.289 171.161 158.07 159.774 162.938 151.69C166.763 145.344 168.502 151.95 173.544 146.474C180.411 138.998 188.669 123.96 184.583 97.3595C177.977 54.2432 143.814 49.2014 118.518 53.9824C93.0482 58.8504 80.009 73.2804 75.8364 92.4915Z" fill="white"/>
<path d="M169.197 154.211C171.197 150.82 173.804 147.865 176.238 144.735C178.585 141.519 180.498 137.955 182.063 134.304C192.407 108.921 188.408 73.1935 163.025 58.2419C152.507 52.1569 139.816 50.6791 127.993 51.6353C102.697 53.4608 79.4874 65.1092 74.011 91.8831C71.0554 103.705 75.0541 115.875 77.3142 127.437C78.3574 133.174 77.4881 139.085 77.575 144.996C77.6619 150.994 79.3136 156.992 81.5737 162.556C82.9646 166.38 85.3985 169.771 87.9195 172.9C92.092 177.942 96.2646 183.071 101.567 186.982C102.784 187.852 104.957 188.286 106.435 188.46C110.521 189.069 114.519 189.243 118.605 188.982C134.6 188.286 151.725 180.55 158.157 165.077C158.418 164.468 157.549 164.033 157.201 164.555C148.856 177.768 133.557 184.288 118.344 185.157C113.65 185.418 108.869 185.331 104.262 184.375C102.002 183.245 100.002 181.245 98.09 179.42C93.3959 174.726 88.6149 169.684 85.2247 163.946C81.1391 156.21 78.8789 147.778 79.5744 138.998C79.7482 135.086 79.8351 131.001 79.0528 127.089C78.3574 123.177 77.4881 119.439 76.9665 115.441C76.4449 111.616 76.1842 107.704 76.1842 103.879C76.6188 92.6654 80.2698 81.104 87.3979 72.4112C103.132 52.8523 140.337 47.7236 161.287 61.1105C174.5 69.2818 180.672 84.5811 182.671 99.4458C185.714 117.266 184.844 134.826 170.675 147.778L166.502 152.124C164.851 154.037 167.806 156.297 169.197 154.211Z" fill="black"/>
<path d="M158.94 126.567C158.94 126.567 161.635 113.528 174.326 115.093C185.279 116.484 189.104 142.736 164.243 150.038" fill="white"/>
<path d="M165.372 138.65C167.372 137.52 168.763 135.608 168.85 133.261C168.763 131.522 168.502 129.523 168.936 127.784C169.197 126.133 170.936 125.698 172.24 125.785C173.631 126.046 174.5 127.784 174.761 129.175C174.761 129.262 174.848 129.523 174.848 129.61C174.934 130.044 175.63 130.044 175.804 129.61C176.934 126.22 174.413 122.482 170.762 122.916C165.633 123.264 164.938 128.654 165.894 132.739C166.416 134.478 165.72 136.043 164.764 137.52L164.59 137.781C164.155 138.303 164.851 138.998 165.372 138.65Z" fill="black"/>
<path d="M95.8301 117.353C94.5262 123.525 92.0922 129.262 89.0497 134.652C86.355 141.258 93.3092 147.517 99.4811 147.256C100.177 147.256 100.263 146.3 99.655 146.126C95.7432 144.909 92.1791 142.301 91.5706 138.303C91.3099 137.086 91.6576 136.042 92.2661 134.999C95.1347 129.61 96.8733 123.438 96.4386 117.353C96.4386 116.918 95.8301 116.918 95.8301 117.353Z" fill="black"/>
<path d="M159.374 126.654C161.374 121.526 165.72 116.658 171.544 116.745C172.066 116.658 172.935 116.831 173.457 116.831C174.934 116.918 176.151 117.44 177.282 118.483C182.845 124.046 181.889 133.869 177.368 140.041C175.804 142.214 173.804 144.127 171.544 145.692C169.284 147.256 166.763 148.473 164.068 149.516C163.46 149.69 163.721 150.646 164.329 150.56C170.153 149.343 175.717 146.474 179.542 141.693C185.453 134.565 186.67 122.656 179.629 115.701C178.064 114.311 175.891 113.267 173.717 113.267C173.022 113.267 171.979 113.094 171.284 113.267C167.633 113.441 164.155 115.267 161.895 118.135C159.896 120.569 158.766 123.525 158.418 126.48C158.418 127.002 159.201 127.176 159.374 126.654Z" fill="black"/>
<path d="M102.436 155.949C108 161.252 118.518 156.992 121.3 150.559C121.647 149.777 120.778 149.082 120.083 149.429C118.605 150.212 117.301 150.994 115.91 151.603C111.911 153.428 107.739 154.906 103.306 154.471C102.436 154.297 101.828 155.34 102.436 155.949Z" fill="black"/>
<path d="M124.168 120.048C124.168 120.135 124.168 120.222 124.168 120.222L124.255 122.656C124.342 124.742 126.081 126.307 128.167 126.22C130.253 126.133 131.818 124.307 131.644 122.308L131.557 119.874C131.557 119.439 131.383 118.918 131.21 118.57L124.255 118.918C124.255 119.265 124.168 119.613 124.168 120.048Z" fill="black"/>
<path d="M87.8327 121.96L87.9197 124.22C88.0066 126.133 89.6582 127.611 91.5706 127.524C93.4831 127.437 94.9608 125.785 94.8739 123.873L94.787 121.612C94.787 121.178 94.7001 120.743 94.5262 120.396L88.0066 120.656C87.9197 121.091 87.8327 121.526 87.8327 121.96Z" fill="black"/>
<path d="M115.476 108.139C113.563 108.399 112.086 106.4 112.781 104.488C113.129 103.445 113.737 102.488 114.694 101.88C117.649 100.054 128.689 99.8805 134.513 104.053C139.729 107.878 124.169 106.922 115.476 108.139Z" fill="black"/>
<path d="M91.3968 109.095C92.9615 109.095 93.9177 107.096 93.1353 105.444C92.7007 104.575 92.0922 103.792 91.2229 103.358C88.5281 102.054 81.3131 102.836 78.0968 107.269C75.2281 111.181 84.1817 109.008 91.3968 109.095Z" fill="black"/>
<path d="M118.606 120.048L132.949 119.787C134.687 119.7 134.6 117.092 132.862 117.179L118.519 118.222C117.302 118.309 117.389 120.048 118.606 120.048Z" fill="black"/>
<path d="M84.1814 121.525L94.7866 121.699C96.5252 121.699 96.6121 119.178 94.8736 119.092C94.7866 119.092 94.7866 119.092 94.6997 119.092L84.0945 120.222C83.3121 120.309 83.399 121.439 84.1814 121.525Z" fill="black"/>
<path d="M61.6668 115.449L68.2733 116.84C68.4472 125.62 68.7949 131.966 68.7949 131.966H78.7917C78.7917 131.966 80.1825 126.924 78.7047 112.841C78.1832 108.321 75.4884 103.018 76.01 99.2805C76.9662 92.4132 79.2263 86.9368 81.3995 83.6335C85.4851 79.9825 92.874 85.1982 93.2217 85.459L92.4394 83.6335C94.6126 85.0243 96.1773 86.4152 96.1773 86.4152C96.1773 86.4152 97.1335 84.4158 98.959 81.808C98.872 82.6773 98.7851 83.5466 98.872 84.242C98.872 84.242 100.176 81.9819 102.349 79.4609C101.48 82.2426 101.741 84.5897 101.741 84.5897C109.303 73.6368 115.823 75.2015 119.126 77.2008C128.515 87.806 129.036 115.449 129.036 115.449L138.424 114.493C138.424 114.493 138.511 111.364 138.25 106.496C140.25 119.969 140.598 131.966 140.598 131.966L158.157 130.662L158.939 127.011C158.939 127.011 161.634 113.971 174.326 115.536C179.107 116.145 182.584 121.534 182.845 127.967L185.018 127.793C185.018 127.793 185.018 120.665 185.018 120.23C185.018 119.796 187.365 127.098 187.365 127.098L194.406 126.489L198.752 125.272C198.752 125.272 194.319 72.4198 177.716 59.0328C168.328 51.4701 161.634 50.7747 161.634 50.7747C158.592 47.6453 152.246 42.0819 144.335 41.4734C133.122 40.6041 79.4871 54.0779 72.7936 67.9864C72.5328 68.508 72.2721 69.1165 72.0982 69.725C69.7511 75.1145 63.7531 91.9786 61.6668 115.449Z" fill="black"/>
</g>
<path d="M13.9931 72.1855C-39.5198 175.667 54.5465 292.428 166.686 263.924C217.025 251.354 257.49 207.535 265.865 156.104C275.386 104.939 252.377 49.9666 209.355 21.0199C150.376 -19.7001 68.6521 -6.15626 26.4236 52.0911C26.1591 52.3566 26.2473 52.7992 26.6 53.0648C26.8644 53.3304 27.3052 53.2419 27.5697 52.8878C33.3882 45.3634 40.0002 38.5472 47.2293 32.4392C59.1308 22.2592 73.0601 14.2923 87.7827 8.89245C162.718 -18.3723 244.971 26.9509 261.369 105.647C279.882 193.814 205.211 274.989 116.17 262.861C47.4938 254.186 -3.55065 190.539 2.09157 121.315C3.3258 104.584 7.73379 88.0309 15.051 72.8052C15.2274 72.5396 15.0511 72.1855 14.7866 72.0085C14.5221 71.8314 14.1694 71.92 13.9931 72.1855Z" fill="black"/>
</g>
<defs>
<clipPath id="clip0_6_1091">
<rect width="266" height="266" rx="133" transform="matrix(-1 0 0 1 266.296 0)" fill="white"/>
</clipPath>
</defs>
</svg>
